<?xml version="1.0" encoding="UTF-8"?>
<svg id="Calque_2" data-name="Calque 2" xmlns="http://www.w3.org/2000/svg" viewBox="0 0 360.71 77.15">
  <defs>
    <style>
      .cls-1 {
        fill: #fff;
      }

      .cls-2 {
        stroke: #fff;
        stroke-miterlimit: 10;
        stroke-width: 2px;
      }

      .cls-2, .cls-3 {
        fill: #ff1f57;
      }

      .cls-4 {
        fill: #ff1e56;
      }
    </style>
  </defs>
  <g id="Calque_1-2" data-name="Calque 1">
    <g>
      <g>
        <polygon class="cls-3" points="72.89 40.41 120.15 3.72 145.86 36.74 98.6 73.44 72.89 40.41"/>
        <path class="cls-4" d="M123.46,4.94h0,0M119.62,7.92l22.02,28.29-42.52,33.02-22.02-28.29L119.62,7.92M120.4,0c-.22,0-.44.07-.61.2l-50.21,38.99c-.49.38-.52,1.18-.05,1.79l27.7,35.58c.3.39.73.6,1.13.6.22,0,.44-.07.61-.2l50.21-38.99c.49-.38.52-1.18.05-1.79L121.52.6C121.22.21,120.79,0,120.4,0h0Z"/>
      </g>
      <path class="cls-2" d="M97.91,60.08c-4.51-.32-8.03-1.48-10.57-3.49-3-2.37-4.51-5.97-4.51-10.79v-2.72l15.08-11.66c3.05.22,5.66.82,7.81,1.82v-1.74c0-2.93-.79-5.11-2.36-6.54-1.5-1.33-3.32-2-5.45-2-2.37,0-4.26.74-5.67,2.22l-2-2.03,7.67-5.92c4.58.32,8.1,1.48,10.57,3.49,1.28,1.04,2.29,2.29,3.02,3.74l9.34-7.23c4.58.32,8.1,1.48,10.57,3.49,3,2.45,4.51,6.04,4.51,10.79l-22.36,18.04c.44,1.21,1.04,2.14,1.82,2.8,1.58,1.33,3.37,2,5.38,2s4.02-.74,5.75-2.22c1.43-1.24,2.15-3.34,2.15-6.31l6.9-3.26h.36v5.89l-15.08,11.66c-3.85-.27-6.95-1.13-9.3-2.58l-5.45,2.58h-.36v-6.07l-7.81,6.07ZM97.91,54.33c2.54,0,4.43-.74,5.67-2.22,1.43-1.72,2.14-3.86,2.14-6.43,0-2.96-.79-5.14-2.36-6.54-1.5-1.33-3.32-2-5.45-2-2.54,0-4.43.74-5.67,2.22-1.43,1.72-2.14,3.83-2.14,6.32,0,3.05.79,5.27,2.36,6.65,1.53,1.33,3.34,2,5.45,2ZM113.03,44.2l15.62-12.58c0-3.09-.79-5.31-2.38-6.66-1.59-1.35-3.4-2.02-5.43-2.02-2.35,0-4.24.74-5.67,2.22-1.43,1.48-2.14,3.59-2.14,6.32v12.72Z"/>
      <g>
        <path class="cls-1" d="M15.14,60.83c-3.09-.22-5.7-.82-7.84-1.79v13.46l-6.93,3.28h-.36V29.51l15.14-11.71c4.6.32,8.13,1.48,10.61,3.5,3.01,2.48,4.52,6.09,4.52,10.83v17l-15.14,11.71ZM9.68,53.07c1.59,1.34,3.41,2.01,5.45,2.01s3.94-.74,5.69-2.22c1.43-1.26,2.15-3.38,2.15-6.35v-14.37c0-3.04-.8-5.23-2.39-6.57-1.59-1.34-3.41-2.01-5.45-2.01-2.33,0-4.23.74-5.67,2.22-1.45,1.48-2.17,3.6-2.17,6.35v14.37c0,3.04.8,5.23,2.39,6.56Z"/>
        <path class="cls-1" d="M43.04,60.83V6.13l6.93-3.28h.36v21.04l7.84-6.09c4.6.32,8.13,1.48,10.61,3.5,3.01,2.46,4.52,6.07,4.52,10.83v25.42l-6.93,3.28h-.36v-28.7c0-2.82-.79-5.01-2.37-6.57-1.36-1.34-3.19-2.01-5.47-2.01s-4.26.75-5.69,2.24c-1.44,1.5-2.15,3.61-2.15,6.33v25.42l-6.93,3.28h-.36Z"/>
        <path class="cls-1" d="M142.61,60.83v-31.33l15.14-11.71c4.6.32,8.13,1.48,10.61,3.5,3.01,2.46,4.52,6.07,4.52,10.83v25.42l-6.93,3.28h-.36v-28.7c0-3.04-.79-5.23-2.37-6.57-1.58-1.34-3.4-2.01-5.47-2.01-2.29,0-4.18.74-5.69,2.22-1.44,1.41-2.15,3.53-2.15,6.35v25.42l-6.93,3.28h-.36Z"/>
        <path class="cls-1" d="M198.96,60.83c-4.6-.32-8.13-1.48-10.61-3.5-3.02-2.48-4.52-6.09-4.52-10.83v-17l15.14-11.71c4.6.32,8.13,1.48,10.61,3.5,3.01,2.46,4.52,6.07,4.52,10.83v17l-15.14,11.71ZM198.96,55.07c2.31,0,4.19-.74,5.65-2.22,1.46-1.48,2.19-3.6,2.19-6.35v-14.37c0-3.04-.8-5.23-2.39-6.57-1.59-1.34-3.41-2.01-5.45-2.01-2.31,0-4.19.74-5.65,2.22-1.46,1.48-2.19,3.6-2.19,6.35v14.37c0,3.04.79,5.23,2.37,6.56,1.58,1.34,3.4,2.01,5.47,2.01Z"/>
        <path class="cls-1" d="M225.03,60.83v-31.33l15.14-11.71c4.64.32,8.18,1.48,10.61,3.5,1.26,1.05,2.27,2.29,3.03,3.72l9.34-7.22c4.6.32,8.13,1.48,10.61,3.5,3.01,2.46,4.52,6.07,4.52,10.83v25.42l-6.93,3.28h-.36v-28.7c0-3.04-.79-5.23-2.37-6.57-1.58-1.34-3.4-2.01-5.47-2.01-2.29,0-4.18.74-5.69,2.22-1.44,1.41-2.15,3.53-2.15,6.35v25.42l-6.93,3.28h-.36v-28.7c0-3.04-.79-5.23-2.37-6.57-1.58-1.34-3.4-2.01-5.47-2.01-2.29,0-4.18.74-5.69,2.22-1.43,1.41-2.15,3.53-2.15,6.35v25.42l-6.93,3.28h-.36Z"/>
        <path class="cls-1" d="M304.36,60.83c-4.6-.32-8.13-1.48-10.61-3.5-3.02-2.48-4.52-6.09-4.52-10.83v-17l15.14-11.71c4.6.32,8.13,1.48,10.61,3.5,3.01,2.46,4.52,6.07,4.52,10.83l-22.45,18.11c.44,1.22,1.05,2.15,1.83,2.81,1.58,1.34,3.38,2.01,5.4,2.01s4.04-.74,5.77-2.22c1.44-1.24,2.15-3.35,2.15-6.33l6.93-3.27h.36v5.91l-15.14,11.71ZM296.52,44.9l15.68-12.64c0-3.1-.8-5.32-2.39-6.67-1.59-1.35-3.41-2.03-5.45-2.03-2.36,0-4.26.74-5.69,2.22-1.43,1.48-2.15,3.6-2.15,6.35v12.77Z"/>
        <path class="cls-1" d="M330.44,60.83v-31.33l15.14-11.71c4.6.32,8.13,1.48,10.61,3.5,3.01,2.46,4.52,6.07,4.52,10.83v25.42l-6.93,3.28h-.36v-28.7c0-3.04-.79-5.23-2.37-6.57-1.58-1.34-3.4-2.01-5.47-2.01-2.29,0-4.18.74-5.69,2.22-1.43,1.41-2.15,3.53-2.15,6.35v25.42l-6.93,3.28h-.36Z"/>
      </g>
    </g>
  </g>
</svg>