<svg width="890" height="412" viewBox="0 0 890 412" fill="none" xmlns="http://www.w3.org/2000/svg">
<path d="M650.38 376.396V403H647.5L647.284 400.516C646.06 402.484 644.416 403.468 642.352 403.468C640.288 403.468 638.68 402.592 637.528 400.84C636.4 399.088 635.836 396.676 635.836 393.604C635.836 391.612 636.112 389.86 636.664 388.348C637.24 386.836 638.044 385.672 639.076 384.856C640.108 384.016 641.296 383.596 642.64 383.596C644.44 383.596 645.94 384.352 647.14 385.864V376.036L650.38 376.396ZM643.108 400.912C643.972 400.912 644.716 400.672 645.34 400.192C645.988 399.712 646.588 399.004 647.14 398.068V388.564C646.06 386.956 644.8 386.152 643.36 386.152C642.088 386.152 641.08 386.764 640.336 387.988C639.592 389.212 639.232 391.06 639.256 393.532C639.256 396.052 639.592 397.912 640.264 399.112C640.936 400.312 641.884 400.912 643.108 400.912ZM659.457 384.064V403H656.217V384.064H659.457ZM657.837 375.136C658.461 375.136 658.965 375.34 659.349 375.748C659.757 376.156 659.961 376.66 659.961 377.26C659.961 377.86 659.769 378.364 659.385 378.772C659.001 379.156 658.485 379.348 657.837 379.348C657.213 379.348 656.697 379.156 656.289 378.772C655.905 378.364 655.713 377.86 655.713 377.26C655.713 376.66 655.905 376.156 656.289 375.748C656.697 375.34 657.213 375.136 657.837 375.136ZM673.063 383.632C673.687 383.632 674.227 383.704 674.683 383.848L674.143 386.98C673.687 386.836 673.195 386.764 672.667 386.764C671.611 386.764 670.747 387.184 670.075 388.024C669.427 388.864 668.911 390.148 668.527 391.876V403H665.287V384.064H668.095L668.347 387.808C669.283 385.024 670.855 383.632 673.063 383.632ZM690.102 392.956C690.102 393.46 690.078 394.024 690.03 394.648H679.014C679.11 396.856 679.554 398.452 680.346 399.436C681.138 400.396 682.218 400.876 683.586 400.876C684.45 400.876 685.218 400.744 685.89 400.48C686.586 400.216 687.306 399.784 688.05 399.184L689.49 401.092C687.714 402.676 685.698 403.468 683.442 403.468C680.97 403.468 679.05 402.616 677.682 400.912C676.338 399.184 675.666 396.772 675.666 393.676C675.666 390.58 676.314 388.132 677.61 386.332C678.906 384.508 680.706 383.596 683.01 383.596C685.29 383.596 687.042 384.412 688.266 386.044C689.49 387.652 690.102 389.956 690.102 392.956ZM686.97 391.984C686.97 388.024 685.662 386.044 683.046 386.044C681.846 386.044 680.898 386.548 680.202 387.556C679.506 388.54 679.11 390.148 679.014 392.38H686.97V391.984ZM701.195 383.596C702.203 383.596 703.127 383.764 703.967 384.1C704.807 384.436 705.611 384.952 706.379 385.648L704.939 387.592C704.363 387.136 703.787 386.8 703.211 386.584C702.635 386.344 702.011 386.224 701.339 386.224C699.923 386.224 698.819 386.824 698.027 388.024C697.259 389.224 696.875 391.096 696.875 393.64C696.875 398.392 698.363 400.768 701.339 400.768C702.011 400.768 702.623 400.66 703.175 400.444C703.727 400.204 704.315 399.856 704.939 399.4L706.451 401.38C704.915 402.772 703.175 403.468 701.231 403.468C698.807 403.468 696.899 402.628 695.507 400.948C694.139 399.268 693.455 396.844 693.455 393.676C693.455 391.612 693.767 389.824 694.391 388.312C695.039 386.8 695.939 385.636 697.091 384.82C698.267 384.004 699.635 383.596 701.195 383.596ZM718.97 402.172C717.77 403.036 716.438 403.468 714.974 403.468C713.438 403.468 712.25 403.024 711.41 402.136C710.594 401.248 710.186 400 710.186 398.392V386.512H707.486V384.064H710.186V379.708L713.426 379.312V384.064H717.602L717.242 386.512H713.426V398.356C713.426 399.988 714.11 400.804 715.478 400.804C715.886 400.804 716.258 400.744 716.594 400.624C716.954 400.504 717.35 400.324 717.782 400.084L718.97 402.172ZM725.023 384.064V403H721.783V384.064H725.023ZM723.403 375.136C724.027 375.136 724.531 375.34 724.915 375.748C725.323 376.156 725.527 376.66 725.527 377.26C725.527 377.86 725.335 378.364 724.951 378.772C724.567 379.156 724.051 379.348 723.403 379.348C722.779 379.348 722.263 379.156 721.855 378.772C721.471 378.364 721.279 377.86 721.279 377.26C721.279 376.66 721.471 376.156 721.855 375.748C722.263 375.34 722.779 375.136 723.403 375.136ZM737.441 383.596C739.866 383.596 741.75 384.448 743.094 386.152C744.438 387.856 745.11 390.304 745.11 393.496C745.11 396.568 744.426 399.004 743.058 400.804C741.69 402.58 739.806 403.468 737.406 403.468C734.982 403.468 733.086 402.592 731.718 400.84C730.374 399.088 729.702 396.652 729.702 393.532C729.702 390.388 730.386 387.952 731.754 386.224C733.122 384.472 735.018 383.596 737.441 383.596ZM737.441 386.188C736.026 386.188 734.946 386.788 734.202 387.988C733.458 389.164 733.086 391.012 733.086 393.532C733.086 398.452 734.526 400.912 737.406 400.912C740.286 400.912 741.726 398.44 741.726 393.496C741.726 390.976 741.366 389.128 740.646 387.952C739.926 386.776 738.858 386.188 737.441 386.188ZM758.263 383.596C759.775 383.596 760.951 384.1 761.791 385.108C762.655 386.092 763.087 387.46 763.087 389.212V403H759.847V389.608C759.847 388.384 759.643 387.508 759.235 386.98C758.827 386.428 758.203 386.152 757.363 386.152C755.779 386.152 754.339 387.28 753.043 389.536V403H749.803V384.064H752.611L752.863 386.872C754.327 384.688 756.127 383.596 758.263 383.596Z" fill="white"/>
<path d="M653.296 359H647.32L640.048 338.732L640.156 339.704C640.492 343.064 640.66 346.052 640.66 348.668V359H636.484V334.124H642.388L649.732 354.392C649.588 353.456 649.444 352.208 649.3 350.648C649.18 349.064 649.12 347.492 649.12 345.932V334.124H653.296V359ZM665.373 339.416C667.941 339.416 669.945 340.28 671.385 342.008C672.825 343.736 673.545 346.22 673.545 349.46C673.545 352.58 672.813 355.04 671.349 356.84C669.909 358.64 667.917 359.54 665.373 359.54C662.805 359.54 660.789 358.664 659.325 356.912C657.885 355.136 657.165 352.652 657.165 349.46C657.165 346.316 657.885 343.856 659.325 342.08C660.789 340.304 662.805 339.416 665.373 339.416ZM665.373 342.836C664.197 342.836 663.321 343.364 662.745 344.42C662.169 345.452 661.881 347.132 661.881 349.46C661.881 351.812 662.169 353.516 662.745 354.572C663.321 355.604 664.197 356.12 665.373 356.12C666.549 356.12 667.425 355.592 668.001 354.536C668.577 353.48 668.865 351.788 668.865 349.46C668.865 347.108 668.577 345.416 668.001 344.384C667.425 343.352 666.549 342.836 665.373 342.836ZM691.805 349.028C691.805 349.244 691.769 349.856 691.697 350.864H680.933C681.077 352.784 681.485 354.14 682.157 354.932C682.829 355.724 683.765 356.12 684.965 356.12C685.733 356.12 686.453 355.988 687.125 355.724C687.797 355.46 688.517 355.052 689.285 354.5L691.157 357.056C689.261 358.712 687.089 359.54 684.641 359.54C681.977 359.54 679.925 358.664 678.485 356.912C677.045 355.16 676.325 352.724 676.325 349.604C676.325 346.532 677.009 344.072 678.377 342.224C679.769 340.352 681.701 339.416 684.173 339.416C686.573 339.416 688.445 340.244 689.789 341.9C691.133 343.556 691.805 345.932 691.805 349.028ZM687.377 347.732C687.377 346.004 687.125 344.72 686.621 343.88C686.117 343.016 685.313 342.584 684.209 342.584C683.201 342.584 682.421 343.004 681.869 343.844C681.341 344.66 681.029 346.028 680.933 347.948H687.377V347.732ZM686.549 329.66L688.385 333.08L680.969 336.32L679.709 334.052L686.549 329.66ZM712.242 333.584C713.61 333.584 714.81 333.8 715.842 334.232C716.898 334.664 717.93 335.312 718.938 336.176L716.634 338.876C715.29 337.748 713.91 337.184 712.494 337.184C710.862 337.184 709.578 337.916 708.642 339.38C707.706 340.844 707.238 343.22 707.238 346.508C707.238 349.724 707.706 352.076 708.642 353.564C709.578 355.052 710.874 355.796 712.53 355.796C713.394 355.796 714.15 355.64 714.798 355.328C715.446 354.992 716.166 354.512 716.958 353.888L719.19 356.552C718.35 357.416 717.354 358.136 716.202 358.712C715.05 359.264 713.754 359.54 712.314 359.54C710.322 359.54 708.57 359.06 707.058 358.1C705.57 357.116 704.406 355.652 703.566 353.708C702.75 351.74 702.342 349.34 702.342 346.508C702.342 343.724 702.774 341.36 703.638 339.416C704.502 337.472 705.678 336.02 707.166 335.06C708.654 334.076 710.346 333.584 712.242 333.584ZM731.028 339.416C732.516 339.416 733.692 339.92 734.556 340.928C735.444 341.936 735.888 343.304 735.888 345.032V359H731.388V345.644C731.388 344.636 731.22 343.928 730.884 343.52C730.572 343.088 730.104 342.872 729.48 342.872C728.28 342.872 727.14 343.82 726.06 345.716V359H721.56V332.36L726.06 331.892V342.224C726.732 341.288 727.464 340.592 728.256 340.136C729.048 339.656 729.972 339.416 731.028 339.416ZM753.506 354.212C753.506 354.884 753.602 355.388 753.794 355.724C753.986 356.036 754.298 356.288 754.73 356.48L753.794 359.468C752.762 359.348 751.922 359.084 751.274 358.676C750.65 358.268 750.182 357.632 749.87 356.768C748.694 358.616 746.99 359.54 744.758 359.54C743.054 359.54 741.698 359 740.69 357.92C739.682 356.84 739.178 355.424 739.178 353.672C739.178 351.608 739.862 350.036 741.23 348.956C742.598 347.852 744.578 347.3 747.17 347.3H749.078V346.112C749.078 344.912 748.838 344.06 748.358 343.556C747.878 343.052 747.098 342.8 746.018 342.8C744.77 342.8 743.234 343.124 741.41 343.772L740.366 340.784C742.55 339.872 744.674 339.416 746.738 339.416C751.25 339.416 753.506 341.564 753.506 345.86V354.212ZM745.982 356.264C747.302 356.264 748.334 355.484 749.078 353.924V349.964H747.638C744.998 349.964 743.678 351.092 743.678 353.348C743.678 354.308 743.882 355.04 744.29 355.544C744.698 356.024 745.262 356.264 745.982 356.264ZM767.55 339.416C769.662 339.416 771.234 340.292 772.266 342.044C773.322 343.772 773.85 346.232 773.85 349.424C773.85 352.496 773.25 354.956 772.05 356.804C770.85 358.628 769.194 359.54 767.082 359.54C765.33 359.54 763.902 358.856 762.798 357.488V366.308L758.298 366.812V339.956H762.258L762.474 342.26C763.818 340.364 765.51 339.416 767.55 339.416ZM765.822 356.084C766.902 356.084 767.73 355.568 768.306 354.536C768.882 353.48 769.17 351.788 769.17 349.46C769.17 347.06 768.918 345.356 768.414 344.348C767.91 343.34 767.154 342.836 766.146 342.836C764.85 342.836 763.734 343.664 762.798 345.32V354.176C763.614 355.448 764.622 356.084 765.822 356.084ZM784.904 339.416C787.472 339.416 789.476 340.28 790.916 342.008C792.356 343.736 793.076 346.22 793.076 349.46C793.076 352.58 792.344 355.04 790.88 356.84C789.44 358.64 787.448 359.54 784.904 359.54C782.336 359.54 780.32 358.664 778.856 356.912C777.416 355.136 776.696 352.652 776.696 349.46C776.696 346.316 777.416 343.856 778.856 342.08C780.32 340.304 782.336 339.416 784.904 339.416ZM784.904 342.836C783.728 342.836 782.852 343.364 782.276 344.42C781.7 345.452 781.412 347.132 781.412 349.46C781.412 351.812 781.7 353.516 782.276 354.572C782.852 355.604 783.728 356.12 784.904 356.12C786.08 356.12 786.956 355.592 787.532 354.536C788.108 353.48 788.396 351.788 788.396 349.46C788.396 347.108 788.108 345.416 787.532 344.384C786.956 343.352 786.08 342.836 784.904 342.836ZM801.112 359.54C799.72 359.54 798.628 359.132 797.836 358.316C797.068 357.5 796.684 356.36 796.684 354.896V332.324L801.184 331.856V354.752C801.184 355.52 801.508 355.904 802.156 355.904C802.468 355.904 802.768 355.856 803.056 355.76L803.956 358.856C803.164 359.312 802.216 359.54 801.112 359.54ZM819.424 354.212C819.424 354.884 819.52 355.388 819.712 355.724C819.904 356.036 820.216 356.288 820.648 356.48L819.712 359.468C818.68 359.348 817.84 359.084 817.192 358.676C816.568 358.268 816.1 357.632 815.788 356.768C814.612 358.616 812.908 359.54 810.676 359.54C808.972 359.54 807.616 359 806.608 357.92C805.6 356.84 805.096 355.424 805.096 353.672C805.096 351.608 805.78 350.036 807.148 348.956C808.516 347.852 810.496 347.3 813.088 347.3H814.996V346.112C814.996 344.912 814.756 344.06 814.276 343.556C813.796 343.052 813.016 342.8 811.936 342.8C810.688 342.8 809.152 343.124 807.328 343.772L806.284 340.784C808.468 339.872 810.592 339.416 812.656 339.416C817.168 339.416 819.424 341.564 819.424 345.86V354.212ZM811.9 356.264C813.22 356.264 814.252 355.484 814.996 353.924V349.964H813.556C810.916 349.964 809.596 351.092 809.596 353.348C809.596 354.308 809.8 355.04 810.208 355.544C810.616 356.024 811.18 356.264 811.9 356.264ZM833.036 339.452C833.54 339.452 834.104 339.536 834.728 339.704L833.972 344.06C833.468 343.916 832.964 343.844 832.46 343.844C831.452 343.844 830.648 344.24 830.048 345.032C829.472 345.824 829.028 347.024 828.716 348.632V359H824.216V339.956H828.14L828.5 343.484C828.956 342.164 829.568 341.168 830.336 340.496C831.104 339.8 832.004 339.452 833.036 339.452ZM850.894 332.324V359H846.898L846.646 356.696C845.398 358.592 843.778 359.54 841.786 359.54C839.674 359.54 838.054 358.652 836.926 356.876C835.798 355.1 835.234 352.64 835.234 349.496C835.234 347.504 835.522 345.752 836.098 344.24C836.674 342.704 837.478 341.516 838.51 340.676C839.566 339.836 840.778 339.416 842.146 339.416C843.826 339.416 845.242 340.088 846.394 341.432V331.856L850.894 332.324ZM843.046 356.156C843.742 356.156 844.354 355.964 844.882 355.58C845.41 355.172 845.914 354.572 846.394 353.78V344.816C845.938 344.144 845.458 343.64 844.954 343.304C844.474 342.968 843.922 342.8 843.298 342.8C842.242 342.8 841.414 343.34 840.814 344.42C840.214 345.476 839.914 347.156 839.914 349.46C839.914 351.836 840.178 353.552 840.706 354.608C841.258 355.64 842.038 356.156 843.046 356.156Z" fill="white"/>
<path d="M662.8 42.144C662.8 43.04 662.757 44.0427 662.672 45.152H643.088C643.259 49.0773 644.048 51.9147 645.456 53.664C646.864 55.3707 648.784 56.224 651.216 56.224C652.752 56.224 654.117 55.9893 655.312 55.52C656.549 55.0507 657.829 54.2827 659.152 53.216L661.712 56.608C658.555 59.424 654.971 60.832 650.96 60.832C646.565 60.832 643.152 59.3173 640.72 56.288C638.331 53.216 637.136 48.928 637.136 43.424C637.136 37.92 638.288 33.568 640.592 30.368C642.896 27.1253 646.096 25.504 650.192 25.504C654.245 25.504 657.36 26.9547 659.536 29.856C661.712 32.7147 662.8 36.8107 662.8 42.144ZM657.232 40.416C657.232 33.376 654.907 29.856 650.256 29.856C648.123 29.856 646.437 30.752 645.2 32.544C643.963 34.2933 643.259 37.152 643.088 41.12H657.232V40.416ZM685.849 25.504C688.537 25.504 690.628 26.4 692.121 28.192C693.657 29.9413 694.425 32.3733 694.425 35.488V60H688.665V36.192C688.665 34.016 688.302 32.4587 687.577 31.52C686.852 30.5387 685.742 30.048 684.249 30.048C681.433 30.048 678.873 32.0533 676.569 36.064V60H670.809V26.336H675.801L676.249 31.328C678.852 27.4453 682.052 25.504 685.849 25.504ZM713.263 25.504C717.146 25.504 720.602 26.784 723.631 29.344L721.199 32.736C719.834 31.7973 718.554 31.0933 717.359 30.624C716.164 30.1547 714.906 29.92 713.583 29.92C711.834 29.92 710.447 30.3467 709.423 31.2C708.442 32.0107 707.951 33.1413 707.951 34.592C707.951 36 708.42 37.1093 709.359 37.92C710.34 38.7307 712.175 39.5627 714.863 40.416C718.234 41.4827 720.687 42.784 722.223 44.32C723.759 45.856 724.527 47.968 724.527 50.656C724.527 53.8133 723.375 56.3093 721.071 58.144C718.767 59.936 715.887 60.832 712.431 60.832C707.866 60.832 704.004 59.3173 700.847 56.288L703.791 53.088C706.479 55.264 709.316 56.352 712.303 56.352C714.18 56.352 715.695 55.8827 716.847 54.944C717.999 54.0053 718.575 52.704 718.575 51.04C718.575 49.8453 718.362 48.8853 717.935 48.16C717.551 47.4347 716.826 46.7947 715.759 46.24C714.735 45.6427 713.22 45.024 711.215 44.384C708.015 43.3173 705.711 42.0373 704.303 40.544C702.895 39.0507 702.191 37.152 702.191 34.848C702.191 33.056 702.66 31.456 703.599 30.048C704.538 28.64 705.839 27.5307 707.503 26.72C709.167 25.9093 711.087 25.504 713.263 25.504ZM755.488 42.144C755.488 43.04 755.445 44.0427 755.36 45.152H735.776C735.946 49.0773 736.736 51.9147 738.144 53.664C739.552 55.3707 741.472 56.224 743.904 56.224C745.44 56.224 746.805 55.9893 748 55.52C749.237 55.0507 750.517 54.2827 751.84 53.216L754.4 56.608C751.242 59.424 747.658 60.832 743.648 60.832C739.253 60.832 735.84 59.3173 733.408 56.288C731.018 53.216 729.824 48.928 729.824 43.424C729.824 37.92 730.976 33.568 733.28 30.368C735.584 27.1253 738.784 25.504 742.88 25.504C746.933 25.504 750.048 26.9547 752.224 29.856C754.4 32.7147 755.488 36.8107 755.488 42.144ZM749.92 40.416C749.92 33.376 747.594 29.856 742.944 29.856C740.81 29.856 739.125 30.752 737.888 32.544C736.65 34.2933 735.946 37.152 735.776 41.12H749.92V40.416ZM794.601 25.504C797.033 25.504 798.974 26.4213 800.425 28.256C801.875 30.048 802.601 32.4587 802.601 35.488V60H796.905V36.128C796.905 32.032 795.582 29.984 792.937 29.984C790.377 29.984 788.03 31.9467 785.897 35.872V60H780.201V36.128C780.201 32.032 778.878 29.984 776.233 29.984C773.63 29.984 771.283 31.9467 769.193 35.872V60H763.497V26.336H768.489L768.937 31.264C771.411 27.424 774.398 25.504 777.897 25.504C779.731 25.504 781.289 26.0373 782.569 27.104C783.849 28.1707 784.766 29.6853 785.321 31.648C787.923 27.552 791.017 25.504 794.601 25.504ZM827.148 25.504C830.689 25.504 833.42 27.0187 835.34 30.048C837.303 33.0347 838.284 37.3867 838.284 43.104C838.284 48.5653 837.217 52.896 835.084 56.096C832.993 59.2533 830.135 60.832 826.508 60.832C824.801 60.832 823.244 60.448 821.836 59.68C820.428 58.8693 819.212 57.7387 818.188 56.288L817.804 60H812.684V12.768L818.444 12.128V30.432C819.511 28.896 820.769 27.7013 822.22 26.848C823.713 25.952 825.356 25.504 827.148 25.504ZM825.164 56.288C829.9 56.288 832.268 51.8933 832.268 43.104C832.268 38.368 831.692 35.0187 830.54 33.056C829.388 31.0507 827.745 30.048 825.612 30.048C824.119 30.048 822.796 30.496 821.644 31.392C820.535 32.288 819.468 33.5467 818.444 35.168V51.872C819.255 53.1947 820.236 54.2613 821.388 55.072C822.54 55.8827 823.799 56.288 825.164 56.288ZM853.083 60.832C851.035 60.832 849.413 60.2133 848.219 58.976C847.024 57.7387 846.427 56.0107 846.427 53.792V12.704L852.187 12.064V53.6C852.187 55.264 852.869 56.096 854.235 56.096C854.789 56.096 855.408 55.968 856.091 55.712L857.371 59.744C856.005 60.4693 854.576 60.832 853.083 60.832ZM886.925 42.144C886.925 43.04 886.882 44.0427 886.797 45.152H867.213C867.384 49.0773 868.173 51.9147 869.581 53.664C870.989 55.3707 872.909 56.224 875.341 56.224C876.877 56.224 878.242 55.9893 879.437 55.52C880.674 55.0507 881.954 54.2827 883.277 53.216L885.837 56.608C882.68 59.424 879.096 60.832 875.085 60.832C870.69 60.832 867.277 59.3173 864.845 56.288C862.456 53.216 861.261 48.928 861.261 43.424C861.261 37.92 862.413 33.568 864.717 30.368C867.021 27.1253 870.221 25.504 874.317 25.504C878.37 25.504 881.485 26.9547 883.661 29.856C885.837 32.7147 886.925 36.8107 886.925 42.144ZM881.357 40.416C881.357 33.376 879.032 29.856 874.381 29.856C872.248 29.856 870.562 30.752 869.325 32.544C868.088 34.2933 867.384 37.152 867.213 41.12H881.357V40.416Z" fill="white"/>
<path d="M179.46 148.507L295.834 58.1606L359.143 139.47L242.769 229.84L179.46 148.507Z" fill="#FF1F57"/>
<path d="M294.529 68.5023L348.752 138.164L244.05 219.473L189.828 149.811L294.529 68.5023ZM296.45 49C295.908 49 295.367 49.1724 294.948 49.4925L171.31 145.502C170.104 146.438 170.03 148.408 171.187 149.91L239.396 237.523C240.135 238.483 241.194 239 242.178 239C242.72 239 243.262 238.828 243.681 238.508L367.318 142.498C368.525 141.562 368.599 139.592 367.442 138.09L299.208 50.4774C298.469 49.5171 297.41 49 296.45 49Z" fill="#FF1E56"/>
<path d="M241.071 196.942C229.965 196.154 221.298 193.297 215.043 188.348C207.656 182.512 203.938 173.647 203.938 161.778V155.081L241.071 126.369C248.581 126.911 255.008 128.388 260.302 130.851V126.566C260.302 119.351 258.357 113.983 254.491 110.462C250.797 107.187 246.316 105.537 241.071 105.537C235.235 105.537 230.581 107.359 227.109 111.003L222.184 106.005L241.071 91.4272C252.349 92.2152 261.016 95.0716 267.098 100.021C270.25 102.582 272.737 105.66 274.535 109.231L297.534 91.4272C308.812 92.2152 317.479 95.0716 323.562 100.021C330.949 106.054 334.667 114.894 334.667 126.591L279.608 171.013C280.691 173.992 282.168 176.282 284.089 177.907C287.98 181.182 292.387 182.832 297.337 182.832C302.286 182.832 307.236 181.01 311.496 177.366C315.017 174.312 316.79 169.141 316.79 161.828L333.781 153.8H334.667V168.304L297.534 197.016C288.054 196.351 280.42 194.233 274.633 190.663L261.213 197.016H260.327V182.069L241.095 197.016L241.071 196.942ZM241.071 182.783C247.325 182.783 251.979 180.961 255.033 177.316C258.554 173.081 260.302 167.811 260.302 161.483C260.302 154.194 258.357 148.826 254.491 145.379C250.797 142.104 246.316 140.454 241.071 140.454C234.816 140.454 230.162 142.276 227.109 145.921C223.588 150.156 221.839 155.352 221.839 161.483C221.839 168.993 223.785 174.46 227.651 177.858C231.418 181.133 235.875 182.783 241.071 182.783ZM278.302 157.839L316.765 126.861C316.765 119.253 314.82 113.786 310.905 110.462C306.99 107.137 302.533 105.488 297.534 105.488C291.747 105.488 287.093 107.31 283.572 110.954C280.051 114.599 278.302 119.794 278.302 126.517V157.839Z" fill="#FF1F57" stroke="white" stroke-width="2" stroke-miterlimit="10"/>
<path d="M37.2563 198.789C29.6475 198.248 23.2206 196.77 17.951 194.382V227.526L0.88647 235.602H0V121.666L37.281 92.8315C48.6081 93.6195 57.3004 96.4759 63.4072 101.45C70.8191 107.557 74.5373 116.446 74.5373 128.118V169.979L37.2563 198.814V198.789ZM23.8116 179.681C27.7268 182.981 32.2084 184.63 37.2317 184.63C42.2551 184.63 46.9336 182.808 51.2429 179.164C54.7641 176.061 56.5371 170.841 56.5371 163.527V128.143C56.5371 120.657 54.5671 115.264 50.6519 111.965C46.7366 108.665 42.2551 107.015 37.2317 107.015C31.4943 107.015 26.8157 108.837 23.2698 112.482C19.6993 116.126 17.9264 121.346 17.9264 128.118V163.503C17.9264 170.989 19.8963 176.381 23.8116 179.656V179.681Z" fill="white"/>
<path d="M105.958 198.789V64.0948L123.022 56.0181H123.909V107.827L143.214 92.8312C154.541 93.6192 163.234 96.4756 169.34 101.45C176.752 107.507 180.47 116.397 180.47 128.118V190.712L163.406 198.789H162.519V128.118C162.519 121.174 160.574 115.781 156.684 111.94C153.335 108.64 148.828 106.99 143.214 106.99C137.6 106.99 132.724 108.837 129.203 112.506C125.657 116.2 123.909 121.395 123.909 128.093V190.688L106.844 198.764H105.958V198.789Z" fill="white"/>
<path d="M351.141 198.789V121.642L388.422 92.8066C399.749 93.5946 408.441 96.451 414.548 101.425C421.96 107.483 425.678 116.372 425.678 128.093V190.688L408.613 198.764H407.727V128.093C407.727 120.607 405.782 115.215 401.891 111.915C398 108.615 393.519 106.966 388.422 106.966C382.783 106.966 378.129 108.788 374.41 112.432C370.865 115.904 369.116 121.124 369.116 128.068V190.663L352.052 198.74H351.165L351.141 198.789Z" fill="white"/>
<path d="M489.898 198.789C478.571 198.001 469.878 195.145 463.771 190.171C456.335 184.064 452.641 175.174 452.641 163.503V121.642L489.922 92.8066C501.249 93.5946 509.942 96.451 516.049 101.425C523.46 107.483 527.179 116.372 527.179 128.093V169.954L489.898 198.789ZM489.898 184.605C495.586 184.605 500.215 182.783 503.81 179.139C507.405 175.495 509.203 170.274 509.203 163.503V128.118C509.203 120.632 507.233 115.239 503.318 111.94C499.403 108.64 494.921 106.99 489.898 106.99C484.21 106.99 479.58 108.812 475.985 112.457C472.39 116.101 470.592 121.321 470.592 128.093V163.478C470.592 170.964 472.538 176.356 476.428 179.631C480.319 182.931 484.801 184.581 489.898 184.581V184.605Z" fill="white"/>
<path d="M554.093 198.789V121.642L591.374 92.8066C602.799 93.5946 611.516 96.451 617.5 101.425C620.603 104.011 623.09 107.064 624.961 110.585L647.96 92.8066C659.287 93.5946 667.98 96.451 674.086 101.425C681.498 107.483 685.216 116.372 685.216 128.093V190.688L668.152 198.764H667.265V128.093C667.265 120.607 665.32 115.215 661.429 111.915C657.539 108.615 653.057 106.966 647.96 106.966C642.321 106.966 637.667 108.788 633.949 112.432C630.403 115.904 628.655 121.124 628.655 128.068V190.663L611.59 198.74H610.704V128.068C610.704 120.583 608.758 115.19 604.868 111.89C600.977 108.591 596.496 106.941 591.398 106.941C585.759 106.941 581.105 108.763 577.387 112.407C573.866 115.879 572.093 121.1 572.093 128.044V190.638L555.029 198.715H554.142L554.093 198.789Z" fill="white"/>
<path d="M749.436 198.789C738.109 198.001 729.417 195.145 723.31 190.171C715.873 184.064 712.18 175.174 712.18 163.503V121.642L749.461 92.8066C760.788 93.5946 769.48 96.451 775.587 101.425C782.999 107.483 786.717 116.372 786.717 128.093L731.436 172.687C732.519 175.692 734.021 177.982 735.942 179.607C739.833 182.906 744.265 184.556 749.239 184.556C754.213 184.556 759.187 182.734 763.447 179.09C766.993 176.036 768.741 170.841 768.741 163.503L785.806 155.45H786.692V170.003L749.411 198.838L749.436 198.789ZM730.131 159.563L768.741 128.438C768.741 120.804 766.771 115.338 762.856 112.013C758.941 108.689 754.459 107.015 749.436 107.015C743.625 107.015 738.946 108.837 735.425 112.481C731.904 116.126 730.131 121.346 730.131 128.118V159.563Z" fill="white"/>
<path d="M813.656 198.789V121.642L850.937 92.8066C862.264 93.5946 870.956 96.451 877.063 101.425C884.475 107.483 888.193 116.372 888.193 128.093V190.688L871.129 198.764H870.242V128.093C870.242 120.607 868.297 115.215 864.406 111.915C860.515 108.615 856.034 106.966 850.937 106.966C845.298 106.966 840.644 108.788 836.926 112.432C833.404 115.904 831.631 121.124 831.631 128.068V190.663L814.567 198.74H813.68L813.656 198.789Z" fill="white"/>
</svg>
